<svg xmlns="http://www.w3.org/2000/svg" fill="none" viewBox="0 0 24 24"><g stroke="#000" stroke-linecap="round" stroke-width="1.68"><path stroke-linejoin="round" d="M15.649 5.395A10.231 10.231 0 0 0 12 4.72c-3.53 0-6.82 1.829-9.11 4.994-.9 1.24-.9 3.323 0 4.563.455.628.949 1.204 1.477 1.723m14.958-8.303a13.464 13.464 0 0 1 1.785 2.017c.9 1.24.9 3.323 0 4.563-2.29 3.165-5.58 4.993-9.11 4.993a10.26 10.26 0 0 1-4-.815"/><path stroke-linejoin="round" d="M15 12c0 1.66-1.34 3-3 3m2.1-5.145A2.99 2.99 0 0 0 12 9c-1.66 0-3 1.34-3 3 0 .73.26 1.397.69 1.917"/><path d="M2 21 22 2.7"/></g></svg>