<?xml version="1.0" encoding="UTF-8"?>
<svg xmlns="http://www.w3.org/2000/svg" viewBox="0 0 1080 1080">
  <defs>
    <style>
      .cls-1 {
        fill: #009ad4;
      }

      .cls-1, .cls-2 {
        stroke-width: 0px;
      }

      .cls-2 {
        fill: #fff;
      }
    </style>
  </defs>
  <g id="Background">
    <rect class="cls-1" width="1080" height="1080"/>
  </g>
  <g id="favicon_white" data-name="favicon white">
    <g>
      <path class="cls-2" d="M284.09,609.22l16.8-19.3c16.8,17.51,40.74,28.23,65.76,28.23,30.73,0,48.96-15.37,48.96-38.24s-16.8-31.45-38.95-41.46l-33.59-14.65c-22.52-9.65-47.53-26.45-47.53-60.4,0-35.74,30.73-62.18,73.62-62.18,28.59,0,52.89,11.79,69.33,28.23l-16.08,19.3c-14.65-12.87-32.52-21.44-53.25-21.44-26.09,0-43.6,13.22-43.6,34.31,0,22.51,20.37,31.09,38.95,38.95l33.24,14.3c27.88,11.79,48.25,27.87,48.25,62.54,0,37.17-30.02,66.83-79.69,66.83-33.59,0-61.82-13.22-82.2-35.02Z"/>
      <g id="m3wBNm.tif">
        <path class="cls-2" d="M940.94,838H139.06V288.9c18.08-.8,36.3-1.61,55.97-2.48,1-12.94,1.89-24.51,2.95-38.34,75.51-12.59,149.18-5.29,220.83,18.91,35.25,11.91,69.21,28.16,102.61,44.76,13.88,6.9,23.55,7.02,36.98-.43,95.41-52.9,197.04-78.12,306.57-65.84,5,.56,9.92,1.79,16.1,2.93.69,5.96,1.46,11.66,1.98,17.37.53,5.87.8,11.75,1.38,20.53,18.51.81,36.69,1.6,56.51,2.47v549.23ZM225.06,725.92c107.5-8.14,204.98,16.93,299.16,67.35v-447.85c-91.55-54.8-189.85-82.74-299.16-73.15v453.65ZM854.81,272.21c-11.97-.84-21.16-1.92-30.37-2.06-88.7-1.37-171.1,21.41-249.02,63.26-16.65,8.94-22.05,19.26-21.94,37.72.79,131.7.45,263.4.55,395.1,0,7.99.78,15.98,1.37,27.37,95.17-51.57,193.46-75.64,299.4-67.94v-453.44ZM166.66,315.76v492.98h324.52c-97.05-49.53-192.52-64.72-295.67-51.42v-441.56h-28.85ZM911.95,809.84v-495.13c-10.48.7-18.55,1.24-29.48,1.97v440.59c-102.9-13.32-197.65,2.36-286.14,52.56h315.62Z"/>
      </g>
      <path class="cls-2" d="M617.33,406h31.32l35.54,124.58c8.09,27.8,14.43,48.92,22.52,76.37h1.41c8.09-27.45,13.72-48.57,22.17-76.37l38.36-124.58h29.91l-74.61,230.86h-34.14l-72.49-230.86Z"/>
    </g>
  </g>
</svg>