<svg xmlns="http://www.w3.org/2000/svg" viewBox="0 0 746.38 110.65"><path d="m211.39 67.03 2.89-3.36c2.93 3.01 7.09 4.85 11.42 4.82 5.32-.03 8.46-2.72 8.44-6.68s-2.94-5.43-6.79-7.14l-5.83-2.5c-3.91-1.65-8.26-4.53-8.3-10.41-.04-6.19 5.25-10.81 12.68-10.85 4.95-.03 9.17 1.98 12.04 4.81l-2.76 3.36c-2.55-2.21-5.66-3.68-9.25-3.66-4.52.03-7.54 2.34-7.51 5.99.02 3.9 3.56 5.36 6.79 6.7l5.77 2.44c4.84 2.01 8.39 4.78 8.43 10.78.04 6.44-5.13 11.61-13.73 11.66-5.82.04-10.72-2.22-14.28-5.98zM246.28 62.66l-.11-16.47-4.46.03-.02-3.84 4.7-.34.56-9.66 4.27-.03.06 9.66 8.11-.05.03 4.15-8.11.05.11 16.59c.02 3.65 1.21 5.75 4.68 5.73 1.05 0 2.23-.2 3.4-.76l1.08 3.58c-1.6.81-3.58 1.32-5.62 1.34-6.44.04-8.63-3.97-8.67-9.97zM265.89 60.99l-.12-19.07 5.14-.03.12 18.39c.04 5.63 1.72 8.04 5.69 8.01 3.1-.02 5.25-1.58 8.08-5.13l-.14-21.36 5.08-.03.19 30.09-4.21.03-.46-4.7h-.19c-2.76 3.3-5.72 5.49-9.87 5.51-6.38.04-9.25-4.03-9.3-11.7zM297.81 56.82c-.06-9.78 6.09-15.89 12.96-15.93 3.47-.02 5.77 1.26 8.44 3.41l-.28-5.14-.07-11.58 5.14-.03.28 44.08-4.21.03-.46-3.53h-.19c-2.34 2.31-5.54 4.31-9.07 4.33-7.55.05-12.48-5.62-12.54-15.64zm21.28 7.17-.1-15.72c-2.55-2.27-4.85-3.13-7.33-3.11-4.83.03-8.64 4.7-8.59 11.57s3.11 11.49 8.37 11.46c2.79-.02 5.19-1.4 7.65-4.2zM332.05 56.54c-.06-9.78 6.58-15.83 13.52-15.87 7.74-.05 11.98 5.49 12.04 14.04 0 1.05-.05 2.04-.23 3.03l-20.12.13c.54 6.74 4.89 10.25 9.97 10.21 2.85-.02 5.38-.9 7.48-2.34l1.88 3.33c-2.65 1.81-5.86 3.13-9.95 3.16-8.11.05-14.52-5.73-14.59-15.69zm5.31-2.7 15.66-.1c-.04-5.82-2.72-8.96-7.36-8.93-3.71.02-7.54 2.59-8.3 9.03zM364.95 41.29l4.21-.03.46 4.33h.19c2.83-2.87 5.91-5.12 10.06-5.14 6.31-.04 9.19 4.03 9.24 11.7l.12 19.07-5.08.03-.12-18.39c-.04-5.63-1.78-8.04-5.75-8.01-3.1.02-5.19 1.64-8.2 4.7l.14 21.79-5.08.03-.19-30.09zM399.81 61.68l-.11-16.47-4.46.03-.02-3.84 4.7-.34.56-9.66 4.27-.03.06 9.66 8.11-.05.03 4.15-8.11.05.11 16.59c.02 3.65 1.21 5.75 4.68 5.73 1.05 0 2.23-.2 3.4-.76l1.07 3.58c-1.6.81-3.58 1.32-5.62 1.34-6.44.04-8.63-3.97-8.67-9.97zM426.98 30.36l5.51-.04 6.39 21.87c1.46 4.88 2.59 8.59 4.05 13.41h.25c1.39-4.84 2.36-8.56 3.81-13.46l6.61-21.96 5.26-.03L446 70.84l-6 .04-13.01-40.53zM460.95 55.78c-.06-10.09 6.46-15.89 13.83-15.94s13.97 5.67 14.03 15.76c.06 9.97-6.46 15.77-13.83 15.81s-13.97-5.67-14.03-15.64zm22.59-.15c-.04-6.93-3.54-11.62-8.74-11.58s-8.64 4.76-8.59 11.69c.04 6.87 3.6 11.49 8.74 11.46s8.64-4.7 8.59-11.57zM496.79 64.34l-.24-37.88 5.08-.03.24 38.26c.01 1.61.69 2.16 1.5 2.16.31 0 .56 0 1.05-.13l.71 3.83c-.68.31-1.67.51-2.91.51-3.84.02-5.4-2.38-5.43-6.71zM510.36 76.2c-.02-2.54 1.64-4.96 4.35-6.84v-.25c-1.49-.92-2.68-2.52-2.69-4.87-.02-2.54 1.7-4.53 3.24-5.59v-.25c-1.99-1.6-3.93-4.49-3.95-8.08-.04-6.56 5.13-10.74 11.26-10.78 1.67-.01 3.16.29 4.28.72l10.46-.07.02 3.9-6.25.04v.25c1.43 1.29 2.56 3.26 2.58 5.99.04 6.38-4.82 10.43-10.95 10.47-1.49 0-3.16-.35-4.53-1.02-1.05.94-1.91 1.93-1.9 3.6.01 1.92 1.26 3.27 5.35 3.25l5.82-.04c6.99-.04 10.54 2.1 10.57 7.11.04 5.57-5.81 10.44-15.16 10.5-7.37.05-12.46-2.83-12.49-8.03zm22.71-1.69c-.02-2.79-2.19-3.7-6.09-3.68l-5.2.03c-1.18 0-2.6-.11-3.9-.47-2.16 1.56-3.07 3.36-3.06 5.1.02 3.22 3.31 5.24 8.76 5.21 5.76-.04 9.51-3.03 9.49-6.19zm-4.06-24.31c-.03-4.39-2.89-6.98-6.42-6.95s-6.36 2.64-6.33 7.04 2.96 7.16 6.42 7.14 6.36-2.83 6.33-7.22zM540.45 66.66l2.33-2.99c2.61 2.15 5.34 3.31 9.06 3.28 3.96-.03 5.93-2.14 5.91-4.74-.02-3.1-3.43-4.37-6.85-5.59-4.53-1.58-8.88-3.72-8.91-8.67s3.78-8.57 10.35-8.61c3.71-.02 7 1.38 9.37 3.34l-2.33 2.92c-2.11-1.47-4.29-2.33-7.01-2.31-3.78.02-5.5 2.08-5.48 4.37.02 2.72 2.69 3.82 6.41 5.1 4.71 1.64 9.31 3.66 9.34 9.1.03 4.89-3.84 9-10.96 9.05-4.4.03-8.43-1.56-11.23-4.26zM566.8 82.4l1.09-3.97c.74.24 1.49.36 2.17.36 3.4-.02 5.55-2.76 6.77-6.48l.67-2.23-12.26-30.07 5.26-.03 6.24 16.61c.94 2.59 2.02 5.68 2.96 8.46h.25c.85-2.73 1.7-5.83 2.48-8.5l5.28-16.69 4.95-.03-11.12 32.63c-2.07 5.96-5.13 10.49-11.2 10.53-1.36 0-2.54-.23-3.53-.6zM595.3 66.31l2.33-2.99c2.61 2.15 5.34 3.31 9.06 3.28 3.96-.03 5.93-2.14 5.91-4.74-.02-3.1-3.43-4.37-6.85-5.59-4.53-1.58-8.88-3.72-8.91-8.67s3.78-8.57 10.35-8.61c3.71-.02 7 1.38 9.37 3.34l-2.33 2.92c-2.11-1.47-4.29-2.33-7.01-2.31-3.78.02-5.5 2.08-5.48 4.37.02 2.72 2.69 3.82 6.41 5.1 4.71 1.64 9.31 3.66 9.34 9.1.03 4.89-3.84 9-10.96 9.05-4.4.03-8.43-1.56-11.23-4.26zM624.18 60.24l-.11-16.47-4.46.03-.02-3.84 4.7-.34.56-9.66 4.27-.03.06 9.66 8.11-.05.03 4.15-8.11.05.11 16.59c.02 3.65 1.21 5.75 4.68 5.73 1.05 0 2.23-.2 3.4-.76l1.07 3.58c-1.6.81-3.58 1.32-5.62 1.34-6.44.04-8.63-3.97-8.67-9.97zM641.04 54.56c-.06-9.78 6.58-15.83 13.52-15.87 7.74-.05 11.98 5.49 12.04 14.04 0 1.05-.05 2.04-.23 3.03l-20.12.13c.54 6.74 4.89 10.25 9.97 10.21 2.85-.02 5.38-.9 7.48-2.34l1.88 3.33c-2.65 1.81-5.86 3.13-9.95 3.16-8.11.05-14.52-5.73-14.59-15.69zm5.31-2.69 15.66-.1c-.04-5.82-2.72-8.96-7.36-8.93-3.71.02-7.54 2.59-8.3 9.03zM671.75 54.36c-.06-9.78 6.58-15.83 13.52-15.87 7.74-.05 11.98 5.49 12.04 14.04 0 1.05-.05 2.04-.23 3.03l-20.12.13c.54 6.74 4.89 10.25 9.97 10.21 2.85-.02 5.38-.9 7.48-2.34l1.88 3.33c-2.65 1.81-5.86 3.13-9.95 3.16-8.11.05-14.52-5.73-14.59-15.69zm5.31-2.69 15.66-.1c-.04-5.82-2.72-8.96-7.36-8.93-3.71.02-7.54 2.59-8.3 9.03zM704.65 39.11l4.21-.03.46 4.33h.19c2.58-2.87 5.73-5.11 9.31-5.14 4.58-.03 7.07 2.12 8.33 5.7 3.14-3.42 6.21-5.8 9.87-5.82 6.19-.04 9.19 4.03 9.24 11.7l.12 19.07-5.08.03-.12-18.39c-.04-5.63-1.85-8.04-5.62-8.01-2.35.02-4.76 1.58-7.52 4.69l.14 21.79-5.08.03-.12-18.39c-.04-5.63-1.85-8.04-5.68-8.01-2.23.01-4.76 1.58-7.52 4.69l.14 21.79-5.08.03-.19-30.09z"/><path fill="#009ad4" d="M148.87 110.65H0V8.71c3.36-.15 6.74-.3 10.39-.46.19-2.4.35-4.55.55-7.12 14.02-2.34 27.7-.98 41 3.51 6.54 2.21 12.85 5.23 19.05 8.31 2.58 1.28 4.37 1.3 6.87-.08 17.7-9.82 36.57-14.5 56.91-12.23.93.1 1.84.33 2.99.54.13 1.11.27 2.16.37 3.23.1 1.09.15 2.18.26 3.81 3.44.15 6.81.3 10.49.46v101.97zM15.97 89.84c19.96-1.51 38.05 3.14 55.54 12.5V19.2C54.51 9.03 36.26 3.84 15.97 5.62zM132.88 5.61c-2.22-.16-3.93-.36-5.64-.38-16.47-.25-31.76 3.97-46.23 11.74-3.09 1.66-4.09 3.57-4.07 7 .15 24.45.08 48.9.1 73.35 0 1.48.14 2.97.25 5.08 17.67-9.57 35.92-14.04 55.58-12.61V5.61zM5.12 13.69v91.52h60.25c-18.02-9.2-35.74-12.02-54.89-9.55V13.69zm138.37 91.73V13.5c-1.95.13-3.44.23-5.47.37v81.8c-19.1-2.47-36.69.44-53.12 9.76h58.6z"/></svg>