<svg xmlns="http://www.w3.org/2000/svg" viewBox="0 0 678 503.93"><g fill="#009ad4"><path d="m122.62 310.49 14.2-16.32c14.2 14.81 34.45 23.87 55.6 23.87 25.99 0 41.4-12.99 41.4-32.33s-14.2-26.59-32.94-35.05l-28.4-12.39c-19.04-8.16-40.19-22.36-40.19-51.07 0-30.22 25.99-52.58 62.25-52.58 24.17 0 44.72 9.97 58.62 23.87l-13.6 16.32c-12.39-10.88-27.5-18.13-45.02-18.13-22.06 0-36.86 11.18-36.86 29.01 0 19.04 17.22 26.29 32.94 32.94l28.1 12.09c23.57 9.97 40.79 23.57 40.79 52.88 0 31.43-25.38 56.5-67.38 56.5-28.4 0-52.27-11.18-69.5-29.61z"/><path d="M678 503.93H0V39.66c15.29-.68 30.69-1.36 47.33-2.1.84-10.94 1.6-20.72 2.5-32.42C113.67-5.51 175.95.67 236.53 21.13c29.8 10.07 58.52 23.81 86.76 37.84 11.73 5.83 19.91 5.93 31.27-.36 80.67-44.73 166.6-66.05 259.21-55.67 4.23.47 8.39 1.51 13.62 2.48.58 5.04 1.24 9.86 1.67 14.69.45 4.96.68 9.94 1.16 17.36 15.65.68 31.02 1.35 47.78 2.09v464.38zM72.71 409.17c90.9-6.88 173.31 14.31 252.95 56.94V87.44C248.25 41.11 165.14 17.48 72.71 25.59v383.57zM605.18 25.55c-10.12-.71-17.89-1.62-25.68-1.74-74.99-1.16-144.67 18.1-210.55 53.49-14.08 7.56-18.64 16.28-18.55 31.89.67 111.35.38 222.71.47 334.07 0 6.76.66 13.51 1.16 23.14 80.47-43.6 163.58-63.95 253.15-57.45zM23.33 62.36v416.83h274.39c-82.06-41.88-162.78-54.72-250-43.48V62.36H23.33zm630.16 417.76V61.48c-8.86.59-15.68 1.05-24.92 1.67v372.53c-87-11.26-167.12 1.99-241.94 44.44z"/><path d="M404.38 138.67h26.48L460.91 244c6.84 23.51 12.2 41.36 19.04 64.57h1.19c6.84-23.21 11.6-41.06 18.75-64.57l32.43-105.33h25.29l-63.08 195.2h-28.86l-61.3-195.2z"/></g></svg>